<?xml version="1.0" encoding="utf-8"?>
<!-- Generator: Adobe Illustrator 16.0.0, SVG Export Plug-In . SVG Version: 6.00 Build 0)  -->
<!DOCTYPE svg PUBLIC "-//W3C//DTD SVG 1.1//EN" "http://www.w3.org/Graphics/SVG/1.1/DTD/svg11.dtd">
<svg version="1.1" id="Calque_1" xmlns="http://www.w3.org/2000/svg" xmlns:xlink="http://www.w3.org/1999/xlink" x="0px" y="0px"
	 width="82.99px" height="84.003px" viewBox="0 0 82.99 84.003" enable-background="new 0 0 82.99 84.003" xml:space="preserve">
<path d="M33.715,10.5c1.434,0,2.594-1.174,2.594-2.625v-5.25c0-1.451-1.16-2.625-2.594-2.625c-1.434,0-2.593,1.174-2.593,2.625v5.25
	C31.121,9.326,32.281,10.5,33.715,10.5z"/>
<path d="M53.885,17.417l3.667-3.712c1.013-1.026,1.013-2.687,0-3.712c-1.013-1.025-2.654-1.025-3.667,0l-3.668,3.712
	c-1.013,1.026-1.013,2.687,0,3.712C51.231,18.442,52.872,18.442,53.885,17.417z"/>
<path d="M2.594,36.751H7.78c1.434,0,2.594-1.174,2.594-2.625s-1.16-2.625-2.594-2.625H2.594C1.16,31.501,0,32.675,0,34.126
	S1.16,36.751,2.594,36.751z"/>
<path d="M57.056,34.126c0,1.451,1.16,2.625,2.594,2.625h5.187c1.434,0,2.593-1.174,2.593-2.625s-1.16-2.625-2.593-2.625h-5.187
	C58.216,31.501,57.056,32.675,57.056,34.126z"/>
<path d="M13.54,17.42c1.013,1.025,2.654,1.025,3.667,0s1.013-2.687,0-3.713L13.54,9.995c-1.013-1.025-2.655-1.025-3.668,0
	c-1.013,1.025-1.013,2.687,0,3.712L13.54,17.42z"/>
<path d="M64.836,42.001c-0.861,0-1.712,0.062-2.558,0.185c-2.72-3.753-6.342-6.62-10.45-8.45
	c-0.208-9.947-8.236-17.986-18.114-17.986c-10.009,0-18.154,8.244-18.154,18.375c0,2.861,0.704,5.538,1.864,7.947
	C7.76,42.473,0,50.502,0,60.377c0,10.131,8.145,18.376,18.154,18.376c2.218,0,4.392-0.41,6.438-1.205
	c4.691,4.143,10.663,6.455,16.903,6.455c6.245,0,12.213-2.312,16.903-6.455c2.046,0.795,4.219,1.205,6.438,1.205
	c10.009,0,18.154-8.245,18.154-18.376S74.845,42.001,64.836,42.001z M33.715,21.001c6.453,0,11.762,4.783,12.76,11.034
	c-1.626-0.328-3.283-0.533-4.979-0.533c-7.446,0-14.345,3.25-19.188,8.737c-0.963-1.831-1.56-3.892-1.56-6.112
	C20.748,26.876,26.552,21.001,33.715,21.001z M64.836,73.503c-2.776,0-5.334-0.902-7.446-2.405
	c-3.804,4.64-9.472,7.655-15.895,7.655S29.404,75.738,25.6,71.098c-2.107,1.502-4.67,2.405-7.446,2.405
	c-7.163,0-12.968-5.875-12.968-13.125s5.805-13.125,12.968-13.125c1.256,0,2.441,0.241,3.586,0.58
	c0.456,0.133,0.917,0.236,1.347,0.416c0.709-1.405,1.601-2.692,2.588-3.897c3.789-4.614,9.427-7.599,15.819-7.599
	c1.641,0,3.216,0.241,4.741,0.61c1.711,0.41,3.328,1.031,4.837,1.851c3.774,2.03,6.874,5.173,8.824,9.034
	c1.524-0.636,3.191-0.995,4.938-0.995c7.162,0,12.967,5.875,12.967,13.125S71.999,73.503,64.836,73.503z"/>
</svg>
