<?xml version="1.0" encoding="utf-8"?>
<!-- Generator: Adobe Illustrator 16.0.0, SVG Export Plug-In . SVG Version: 6.00 Build 0)  -->
<!DOCTYPE svg PUBLIC "-//W3C//DTD SVG 1.1//EN" "http://www.w3.org/Graphics/SVG/1.1/DTD/svg11.dtd">
<svg version="1.1" id="Calque_1" xmlns="http://www.w3.org/2000/svg" xmlns:xlink="http://www.w3.org/1999/xlink" x="0px" y="0px"
	 width="86.011px" height="75.003px" viewBox="0 0 86.011 75.003" enable-background="new 0 0 86.011 75.003" xml:space="preserve">
<path fill-rule="evenodd" clip-rule="evenodd" d="M67.197,10.715c-0.893,0-1.774,0.063-2.651,0.189C59.526,4.089,51.605,0,43.006,0
	c-8.599,0-16.516,4.089-21.54,10.903c-0.877-0.126-1.759-0.189-2.651-0.189C8.442,10.715,0,19.127,0,29.465
	s8.442,18.75,18.815,18.75c2.299,0,4.552-0.418,6.672-1.229c4.861,4.227,11.051,6.586,17.519,6.586
	c6.473,0,12.657-2.359,17.518-6.586c2.121,0.811,4.373,1.229,6.672,1.229c10.374,0,18.815-8.413,18.815-18.75
	S77.57,10.715,67.197,10.715z M67.197,42.859c-2.877,0-5.528-0.921-7.717-2.454c-3.943,4.735-9.817,7.811-16.474,7.811
	s-12.531-3.076-16.474-7.811c-2.184,1.533-4.84,2.454-7.717,2.454c-7.424,0-13.44-5.995-13.44-13.393s6.016-13.393,13.44-13.393
	c1.816,0,3.538,0.368,5.113,1.017c3.564-6.935,10.725-11.732,19.077-11.732s15.513,4.797,19.073,11.732
	c1.58-0.649,3.307-1.017,5.118-1.017c7.423,0,13.439,5.995,13.439,13.393S74.62,42.859,67.197,42.859z"/>
<path fill-rule="evenodd" clip-rule="evenodd" d="M37.63,69.646c0,2.961,2.405,5.357,5.376,5.357s5.375-2.396,5.375-5.357
	c0-2.961-5.375-10.715-5.375-10.715S37.63,66.684,37.63,69.646z"/>
</svg>
