<?xml version="1.0" encoding="utf-8"?>
<!-- Generator: Adobe Illustrator 16.0.0, SVG Export Plug-In . SVG Version: 6.00 Build 0)  -->
<!DOCTYPE svg PUBLIC "-//W3C//DTD SVG 1.1//EN" "http://www.w3.org/Graphics/SVG/1.1/DTD/svg11.dtd">
<svg version="1.1" id="Calque_1" xmlns="http://www.w3.org/2000/svg" xmlns:xlink="http://www.w3.org/1999/xlink" x="0px" y="0px"
	 width="85.018px" height="50.002px" viewBox="0 0 85.018 50.002" enable-background="new 0 0 85.018 50.002" xml:space="preserve">
<path fill-rule="evenodd" clip-rule="evenodd" d="M82.184,22.223H67.726C66.299,9.758,55.604,0,42.509,0
	c-8.823,0-16.605,4.419-21.188,11.112H2.834C1.268,11.112,0,12.354,0,13.89s1.268,2.778,2.834,2.778H18.57
	c-0.645,1.771-1.06,3.627-1.279,5.556h-8.79c-1.566,0-2.834,1.243-2.834,2.778c0,1.536,1.267,2.778,2.834,2.778h8.79
	c0.219,1.926,0.634,3.787,1.279,5.556H3.349C1.498,33.335,0,34.577,0,36.113s1.498,2.778,3.349,2.778h17.972
	c4.583,6.695,12.365,11.112,21.188,11.112c8.822,0,16.605-4.416,21.188-11.112h6.637c1.849,0,3.349-1.242,3.349-2.778
	s-1.5-2.778-3.349-2.778h-3.886c0.642-1.769,1.058-3.63,1.279-5.556h14.458c1.567,0,2.834-1.242,2.834-2.778
	C85.018,23.466,83.75,22.223,82.184,22.223z M24.661,16.667h17.848c1.566,0,2.834-1.242,2.834-2.778s-1.267-2.778-2.834-2.778
	h-13.84c3.579-3.426,8.455-5.555,13.84-5.555c9.969,0,18.16,7.27,19.55,16.667H22.959C23.247,20.259,23.817,18.398,24.661,16.667z
	 M42.509,44.446c-5.386,0-10.262-2.132-13.84-5.556h27.678C52.771,42.314,47.894,44.446,42.509,44.446z M60.354,33.335H24.661
	c-0.844-1.73-1.414-3.592-1.702-5.556h39.099C61.771,29.743,61.201,31.604,60.354,33.335z"/>
</svg>
