<?xml version="1.0" encoding="utf-8"?>
<!-- Generator: Adobe Illustrator 16.0.0, SVG Export Plug-In . SVG Version: 6.00 Build 0)  -->
<!DOCTYPE svg PUBLIC "-//W3C//DTD SVG 1.1//EN" "http://www.w3.org/Graphics/SVG/1.1/DTD/svg11.dtd">
<svg version="1.1" id="Calque_1" xmlns="http://www.w3.org/2000/svg" xmlns:xlink="http://www.w3.org/1999/xlink" x="0px" y="0px"
	 width="33.244px" height="37.098px" viewBox="0 0 50 50" enable-background="new 0 0 50 50" xml:space="preserve">
  <path d="M48.727,49.161l-16.582-6.009c-2.86,1.298-5.885,1.955-9,1.955c-12.076,0-21.9-9.824-21.9-21.9s9.825-21.9,21.9-21.9
                    c12.076,0,21.901,9.824,21.901,21.9c0,4.922-1.669,9.688-4.722,13.552L48.727,49.161z M31.971,39.712l8.639,3.131l-4.276-6.313
                    l0.815-0.924c3.045-3.438,4.722-7.84,4.722-12.397c0-10.325-8.399-18.725-18.725-18.725c-10.325,0-18.726,8.399-18.726,18.724
                    s8.4,18.725,18.725,18.725c2.853,0,5.618-0.646,8.221-1.923L31.971,39.712z"></path>
  <circle cx="23.75" cy="14.556" r="2.395"></circle>
  <polygon points="26,22.336 26,18.965 26,19 20,19 20,23 22,23 22,30 20,30 20,34 28,34 28,30 26,30        "></polygon>
</svg>