<?xml version="1.0" encoding="utf-8"?>
<!-- Generator: Adobe Illustrator 16.0.0, SVG Export Plug-In . SVG Version: 6.00 Build 0)  -->
<!DOCTYPE svg PUBLIC "-//W3C//DTD SVG 1.1//EN" "http://www.w3.org/Graphics/SVG/1.1/DTD/svg11.dtd">
<svg version="1.1" id="Calque_1" xmlns="http://www.w3.org/2000/svg" xmlns:xlink="http://www.w3.org/1999/xlink" x="0px" y="0px"
	 width="61.972px" height="70.002px" viewBox="0 0 61.972 70.002" enable-background="new 0 0 61.972 70.002" xml:space="preserve">
<path d="M58.503,42.931l-7.076-4.119c0.223-1.24,0.38-2.505,0.38-3.811c0-1.309-0.156-2.581-0.386-3.821l7.076-4.123
	c3.321-1.941,4.453-6.22,2.542-9.557c-1.918-3.35-6.154-4.498-9.476-2.57l-7.144,4.16c-1.911-1.641-4.087-2.933-6.493-3.798V7
	c0-3.865-3.105-7-6.941-7c-3.83,0-6.94,3.135-6.94,7v8.289c-2.406,0.865-4.582,2.157-6.493,3.798l-7.131-4.153
	C7.1,13.002,2.85,14.147,0.932,17.497c-1.911,3.343-0.773,7.626,2.549,9.557l7.063,4.115c-0.23,1.245-0.38,2.519-0.38,3.832
	c0,1.306,0.149,2.574,0.38,3.815l-7.07,4.115c-3.321,1.935-4.459,6.221-2.542,9.571c1.911,3.336,6.161,4.484,9.482,2.556
	l7.124-4.149c1.912,1.64,4.094,2.94,6.507,3.808v8.286c0,3.869,3.11,7,6.94,7c3.836,0,6.941-3.131,6.941-7V54.71
	c2.413-0.868,4.595-2.161,6.5-3.808l7.137,4.156c3.322,1.928,7.565,0.78,9.476-2.556C62.956,49.152,61.825,44.873,58.503,42.931z
	 M24.045,35.001c0-3.865,3.104-7,6.94-7c3.83,0,6.941,3.135,6.941,7c0,3.866-3.111,7-6.941,7
	C27.149,42.001,24.045,38.867,24.045,35.001z"/>
</svg>
