<?xml version="1.0" encoding="utf-8"?>
<!-- Generator: Adobe Illustrator 16.0.0, SVG Export Plug-In . SVG Version: 6.00 Build 0)  -->
<!DOCTYPE svg PUBLIC "-//W3C//DTD SVG 1.1//EN" "http://www.w3.org/Graphics/SVG/1.1/DTD/svg11.dtd">
<svg version="1.1" id="Calque_1" xmlns="http://www.w3.org/2000/svg" xmlns:xlink="http://www.w3.org/1999/xlink" x="0px" y="0px"
	 width="86.012px" height="75.003px" viewBox="0 0 86.012 75.003" enable-background="new 0 0 86.012 75.003" xml:space="preserve">
<path fill-rule="evenodd" clip-rule="evenodd" d="M70.058,6.493C66.031,2.383,60.461,0,54.65,0c-5.806,0-11.371,2.383-15.4,6.493
	c-8.872,0.411-15.962,7.73-15.962,16.668c0,9.203,7.512,16.689,16.747,16.689c0.979,0,1.948-0.083,2.9-0.251
	c3.483,2.266,7.546,3.49,11.715,3.49c4.174,0,8.242-1.224,11.723-3.49c0.955,0.167,1.921,0.251,2.903,0.251
	c9.229,0,16.736-7.487,16.736-16.689C86.012,14.223,78.924,6.901,70.058,6.493z M69.275,34.493c-1.396,0-2.751-0.251-4.032-0.743
	c-2.94,2.553-6.678,3.982-10.594,3.982c-3.905,0-7.644-1.428-10.583-3.982c-1.281,0.492-2.646,0.743-4.031,0.743
	c-6.268,0-11.372-5.085-11.372-11.332c0-6.244,5.103-11.329,11.372-11.329c0.535,0,1.071,0.039,1.601,0.115
	c3.039-4.118,7.817-6.59,13.014-6.59c5.197,0,9.985,2.472,13.02,6.59c0.525-0.076,1.061-0.115,1.606-0.115
	c6.268,0,11.361,5.085,11.361,11.329C80.636,29.408,75.544,34.493,69.275,34.493z"/>
<path fill-rule="evenodd" clip-rule="evenodd" d="M24.191,37.617H2.688C1.202,37.617,0,38.814,0,40.295
	c0,1.481,1.202,2.679,2.688,2.679h21.503c1.486,0,2.688-1.198,2.688-2.679C26.879,38.814,25.677,37.617,24.191,37.617z"/>
<path fill-rule="evenodd" clip-rule="evenodd" d="M2.688,32.26h10.751c1.486,0,2.688-1.198,2.688-2.679
	c0-1.481-1.202-2.678-2.688-2.678H2.688C1.202,26.902,0,28.1,0,29.581C0,31.062,1.202,32.26,2.688,32.26z"/>
<path fill-rule="evenodd" clip-rule="evenodd" d="M8.064,21.545h10.751c1.486,0,2.688-1.198,2.688-2.678
	c0-1.481-1.202-2.679-2.688-2.679H8.064c-1.486,0-2.688,1.198-2.688,2.679C5.376,20.347,6.578,21.545,8.064,21.545z"/>
<path fill-rule="evenodd" clip-rule="evenodd" d="M37.63,58.931c0,2.961,2.405,5.357,5.376,5.357c2.971,0,5.376-2.396,5.376-5.357
	c0-2.961-5.376-10.715-5.376-10.715S37.63,55.97,37.63,58.931z"/>
<path fill-rule="evenodd" clip-rule="evenodd" d="M59.133,69.646c0,2.961,2.404,5.357,5.375,5.357s5.376-2.396,5.376-5.357
	s-5.376-10.715-5.376-10.715S59.133,66.685,59.133,69.646z"/>
</svg>
