<?xml version="1.0" encoding="utf-8"?>
<!-- Generator: Adobe Illustrator 16.0.0, SVG Export Plug-In . SVG Version: 6.00 Build 0)  -->
<!DOCTYPE svg PUBLIC "-//W3C//DTD SVG 1.1//EN" "http://www.w3.org/Graphics/SVG/1.1/DTD/svg11.dtd">
<svg version="1.1" id="Calque_1" xmlns="http://www.w3.org/2000/svg" xmlns:xlink="http://www.w3.org/1999/xlink" x="0px" y="0px"
	 width="86.011px" height="81.003px" viewBox="0 0 86.011 81.003" enable-background="new 0 0 86.011 81.003" xml:space="preserve">
<path fill-rule="evenodd" clip-rule="evenodd" d="M67.197,10.8c-0.893,0-1.774,0.063-2.651,0.19C59.526,4.122,51.605,0,43.006,0
	S26.49,4.122,21.466,10.99c-0.877-0.127-1.759-0.19-2.651-0.19C8.442,10.8,0,19.28,0,29.701c0,10.421,8.442,18.901,18.815,18.901
	c2.299,0,4.552-0.422,6.672-1.24c2.063,1.809,4.41,3.201,6.872,4.292l4.185-4.197c-3.938-1.287-7.418-3.592-10.012-6.729
	c-2.184,1.545-4.84,2.473-7.717,2.473c-7.424,0-13.44-6.043-13.44-13.5c0-7.457,6.016-13.501,13.44-13.501
	c1.816,0,3.538,0.372,5.113,1.026C27.493,10.236,34.654,5.4,43.006,5.4s15.513,4.836,19.073,11.826
	c1.58-0.654,3.307-1.026,5.118-1.026c7.423,0,13.439,6.043,13.439,13.501c0,7.457-6.016,13.5-13.439,13.5
	c-2.877,0-5.528-0.928-7.717-2.473c-1.743,2.112-3.917,3.823-6.321,5.158l-2.257,6.808c3.507-1.108,6.803-2.858,9.623-5.332
	c2.121,0.817,4.373,1.24,6.672,1.24c10.374,0,18.815-8.48,18.815-18.901C86.011,19.28,77.57,10.8,67.197,10.8z"/>
<path fill-rule="evenodd" clip-rule="evenodd" d="M32.254,59.402l5.376,5.4l-5.376,16.201l16.127-16.201l-5.375-5.4l5.375-16.201
	L32.254,59.402z"/>
</svg>
