<?xml version="1.0" encoding="utf-8"?>
<!-- Generator: Adobe Illustrator 16.0.0, SVG Export Plug-In . SVG Version: 6.00 Build 0)  -->
<!DOCTYPE svg PUBLIC "-//W3C//DTD SVG 1.1//EN" "http://www.w3.org/Graphics/SVG/1.1/DTD/svg11.dtd">
<svg version="1.1" id="Calque_1" xmlns="http://www.w3.org/2000/svg" xmlns:xlink="http://www.w3.org/1999/xlink" x="0px" y="0px"
	 width="83.995px" height="84.003px" viewBox="0 0 83.995 84.003" enable-background="new 0 0 83.995 84.003" xml:space="preserve">
<path fill-rule="evenodd" clip-rule="evenodd" d="M41.997,19.385c-12.468,0-22.614,10.147-22.614,22.616
	c0,12.469,10.146,22.616,22.614,22.616c12.468,0,22.614-10.147,22.614-22.616C64.612,29.532,54.466,19.385,41.997,19.385z
	 M41.997,58.156c-8.922,0-16.153-7.231-16.153-16.155c0-8.923,7.231-16.154,16.153-16.154c8.922,0,16.153,7.231,16.153,16.154
	C58.15,50.925,50.92,58.156,41.997,58.156z"/>
<path fill-rule="evenodd" clip-rule="evenodd" d="M41.997,0c-1.786,0-3.23,1.445-3.23,3.231v6.462c0,1.786,1.445,3.231,3.23,3.231
	s3.23-1.445,3.23-3.231V3.231C45.228,1.445,43.783,0,41.997,0z"/>
<path fill-rule="evenodd" clip-rule="evenodd" d="M41.997,71.08c-1.786,0-3.23,1.445-3.23,3.231v6.462
	c0,1.786,1.445,3.231,3.23,3.231s3.23-1.445,3.23-3.231v-6.462C45.228,72.524,43.783,71.08,41.997,71.08z"/>
<path fill-rule="evenodd" clip-rule="evenodd" d="M71.691,12.299c-1.261-1.262-3.306-1.262-4.568,0l-4.568,4.569
	c-1.262,1.262-1.262,3.307,0,4.569c1.262,1.262,3.307,1.262,4.568,0l4.568-4.569C72.953,15.605,72.953,13.561,71.691,12.299z"/>
<path fill-rule="evenodd" clip-rule="evenodd" d="M21.44,62.567c-1.262-1.262-3.307-1.268-4.568,0l-4.568,4.569
	c-1.262,1.262-1.262,3.307,0,4.569c1.262,1.262,3.306,1.262,4.568,0l4.568-4.569C22.702,65.868,22.702,63.829,21.44,62.567z"/>
<path fill-rule="evenodd" clip-rule="evenodd" d="M0,42.001c0,1.786,1.445,3.231,3.23,3.231h6.461c1.785,0,3.23-1.445,3.23-3.231
	c0-1.786-1.445-3.23-3.23-3.23H3.23C1.445,38.771,0,40.216,0,42.001z"/>
<path fill-rule="evenodd" clip-rule="evenodd" d="M71.073,42.001c0,1.786,1.445,3.231,3.23,3.231h6.461
	c1.786,0,3.23-1.445,3.23-3.231c0-1.786-1.445-3.23-3.23-3.23h-6.461C72.517,38.771,71.073,40.216,71.073,42.001z"/>
<path fill-rule="evenodd" clip-rule="evenodd" d="M12.297,12.302c-1.262,1.262-1.262,3.307,0,4.568l4.569,4.569
	c1.262,1.262,3.306,1.262,4.568,0c1.262-1.262,1.262-3.306,0-4.569l-4.568-4.568C15.604,11.04,13.559,11.04,12.297,12.302z"/>
<path fill-rule="evenodd" clip-rule="evenodd" d="M62.561,62.561c-1.262,1.263-1.269,3.307,0,4.569l4.568,4.569
	c1.263,1.262,3.307,1.262,4.569,0s1.262-3.306,0-4.569l-4.569-4.569C65.861,61.299,63.823,61.299,62.561,62.561z"/>
</svg>
