<?xml version="1.0" encoding="utf-8"?>
<!-- Generator: Adobe Illustrator 16.0.0, SVG Export Plug-In . SVG Version: 6.00 Build 0)  -->
<!DOCTYPE svg PUBLIC "-//W3C//DTD SVG 1.1//EN" "http://www.w3.org/Graphics/SVG/1.1/DTD/svg11.dtd">
<svg version="1.1" id="Calque_1" xmlns="http://www.w3.org/2000/svg" xmlns:xlink="http://www.w3.org/1999/xlink" x="0px" y="0px"
	 width="85.918px" height="86.003px" viewBox="0 0 85.918 86.003" enable-background="new 0 0 85.918 86.003" xml:space="preserve">
<path fill-rule="evenodd" clip-rule="evenodd" d="M67.123,10.75c-0.891,0-1.773,0.062-2.648,0.189C59.461,4.103,51.549,0,42.959,0
	c-8.59,0-16.498,4.103-21.516,10.939c-0.876-0.126-1.757-0.189-2.648-0.189C8.432,10.75,0,19.191,0,29.563
	s8.432,18.813,18.795,18.813c2.297,0,4.547-0.42,6.665-1.234c4.856,4.242,11.039,6.609,17.499,6.609
	c6.466,0,12.644-2.367,17.5-6.609c2.118,0.814,4.368,1.234,6.665,1.234c10.362,0,18.795-8.441,18.795-18.813
	S77.486,10.75,67.123,10.75z M67.123,43.001c-2.874,0-5.522-0.924-7.708-2.462c-3.938,4.751-9.807,7.837-16.456,7.837
	c-6.649,0-12.518-3.086-16.456-7.837c-2.181,1.538-4.834,2.462-7.708,2.462c-7.415,0-13.425-6.016-13.425-13.438
	c0-7.423,6.01-13.438,13.425-13.438c1.814,0,3.534,0.37,5.108,1.021c3.561-6.958,10.713-11.771,19.056-11.771
	c8.343,0,15.496,4.813,19.052,11.771c1.578-0.651,3.304-1.021,5.113-1.021c7.415,0,13.425,6.015,13.425,13.438
	C80.548,36.986,74.539,43.001,67.123,43.001z"/>
<path fill-rule="evenodd" clip-rule="evenodd" d="M37.757,80.628c0,2.971,2.401,5.375,5.37,5.375c2.968,0,5.37-2.405,5.37-5.375
	s-5.37-10.75-5.37-10.75S37.757,77.657,37.757,80.628z"/>
<path fill-rule="evenodd" clip-rule="evenodd" d="M59.069,75.253c0,2.971,2.402,5.375,5.37,5.375c2.968,0,5.37-2.404,5.37-5.375
	s-5.37-10.75-5.37-10.75S59.069,72.282,59.069,75.253z"/>
<path fill-rule="evenodd" clip-rule="evenodd" d="M16.11,64.502c0,2.971,2.402,5.375,5.37,5.375s5.37-2.405,5.37-5.375
	c0-2.971-5.37-10.75-5.37-10.75S16.11,61.531,16.11,64.502z"/>
</svg>
