<?xml version="1.0" encoding="utf-8"?>
<!-- Generator: Adobe Illustrator 16.0.0, SVG Export Plug-In . SVG Version: 6.00 Build 0)  -->
<!DOCTYPE svg PUBLIC "-//W3C//DTD SVG 1.1//EN" "http://www.w3.org/Graphics/SVG/1.1/DTD/svg11.dtd">
<svg version="1.1" id="Calque_1" xmlns="http://www.w3.org/2000/svg" xmlns:xlink="http://www.w3.org/1999/xlink" x="0px" y="0px"
	 width="85.917px" height="86.003px" viewBox="0 0 85.917 86.003" enable-background="new 0 0 85.917 86.003" xml:space="preserve">
<path fill-rule="evenodd" clip-rule="evenodd" d="M54.711,74.528l-3.021-1.743c0.094-0.525,0.163-1.06,0.163-1.617
	c0-0.556-0.068-1.092-0.168-1.616l3.026-1.748c1.415-0.824,1.898-2.641,1.085-4.048c-0.818-1.422-2.627-1.91-4.048-1.092
	l-3.052,1.764c-0.818-0.698-1.741-1.244-2.769-1.612v-3.511c0-1.643-1.332-2.971-2.968-2.971c-1.636,0-2.963,1.328-2.963,2.971
	v3.506c-1.028,0.367-1.956,0.918-2.774,1.617l-3.046-1.764c-1.421-0.819-3.236-0.336-4.054,1.087
	c-0.819,1.417-0.325,3.233,1.091,4.052l3.015,1.742c-0.099,0.53-0.162,1.065-0.162,1.622c0,0.557,0.063,1.092,0.162,1.617
	l-3.015,1.743c-1.421,0.819-1.909,2.646-1.091,4.063c0.818,1.417,2.632,1.9,4.048,1.082l3.047-1.753
	c0.818,0.693,1.746,1.239,2.779,1.606v3.517c0,1.638,1.327,2.961,2.963,2.961c1.636,0,2.968-1.323,2.968-2.961v-3.517
	c1.028-0.367,1.961-0.913,2.774-1.617l3.047,1.764c1.422,0.819,3.23,0.335,4.048-1.082C56.614,77.174,56.132,75.357,54.711,74.528z
	 M42.959,74.14c-1.636,0-2.968-1.333-2.968-2.971s1.332-2.966,2.968-2.966c1.636,0,2.963,1.328,2.963,2.966
	S44.595,74.14,42.959,74.14z"/>
<path fill-rule="evenodd" clip-rule="evenodd" d="M79.567,66.56l-2.024-0.541c-0.052-0.64-0.205-1.254-0.488-1.842l1.473-1.476
	c0.692-0.693,0.687-1.811,0-2.493c-0.687-0.688-1.798-0.693-2.49,0l-1.474,1.47c-0.582-0.273-1.201-0.431-1.84-0.483l-0.54-2.026
	c-0.252-0.939-1.217-1.501-2.161-1.249c-0.938,0.257-1.489,1.223-1.242,2.162l0.54,2c-0.268,0.178-0.52,0.383-0.755,0.614
	c-0.231,0.236-0.43,0.488-0.608,0.75l-1.998-0.541c-0.938-0.252-1.914,0.315-2.166,1.249c-0.252,0.945,0.315,1.905,1.248,2.163
	l2.014,0.541c0.053,0.635,0.215,1.255,0.499,1.843l-1.479,1.479c-0.687,0.688-0.682,1.801,0.005,2.488
	c0.687,0.688,1.799,0.693,2.486,0.005l1.479-1.48c0.582,0.284,1.207,0.446,1.846,0.493l0.535,2.021
	c0.257,0.939,1.217,1.501,2.16,1.249c0.934-0.252,1.5-1.217,1.249-2.167l-0.535-2c0.251-0.179,0.508-0.378,0.744-0.609
	c0.231-0.236,0.43-0.493,0.608-0.75l2.003,0.535c0.938,0.252,1.908-0.31,2.155-1.244C81.062,67.783,80.506,66.817,79.567,66.56z
	 M73.552,67.683c-0.692,0.693-1.809,0.688-2.497,0c-0.681-0.683-0.687-1.801,0-2.493c0.687-0.688,1.809-0.688,2.497,0
	C74.234,65.878,74.234,67.001,73.552,67.683z"/>
<path fill-rule="evenodd" clip-rule="evenodd" d="M19.958,57.531l-1.993,0.535c-0.183-0.251-0.377-0.509-0.614-0.745
	c-0.236-0.231-0.488-0.43-0.75-0.609l0.535-2.005c0.252-0.94-0.309-1.91-1.238-2.157c-0.944-0.252-1.908,0.304-2.16,1.244
	l-0.546,2.026c-0.64,0.052-1.253,0.209-1.835,0.488l-1.479-1.475c-0.692-0.693-1.804-0.688-2.491,0
	c-0.688,0.688-0.688,1.805,0,2.493l1.473,1.475c-0.278,0.588-0.435,1.207-0.487,1.842l-2.019,0.541
	c-0.944,0.258-1.505,1.218-1.253,2.163c0.257,0.939,1.221,1.491,2.166,1.244l1.993-0.541c0.178,0.267,0.377,0.519,0.619,0.756
	c0.231,0.231,0.483,0.436,0.745,0.609l-0.535,2c-0.252,0.945,0.309,1.916,1.243,2.168c0.944,0.252,1.903-0.31,2.155-1.249
	l0.545-2.016c0.64-0.052,1.259-0.215,1.846-0.493l1.473,1.475c0.688,0.693,1.799,0.683,2.491-0.005c0.682-0.683,0.692-1.8,0-2.488
	l-1.479-1.479c0.283-0.583,0.451-1.208,0.493-1.848l2.025-0.536c0.933-0.257,1.494-1.218,1.242-2.163
	C21.872,57.846,20.908,57.284,19.958,57.531z M14.862,62.313c-0.688,0.688-1.804,0.688-2.497,0c-0.681-0.688-0.681-1.811,0-2.493
	c0.692-0.688,1.809-0.688,2.497,0C15.548,60.507,15.543,61.625,14.862,62.313z"/>
<path fill-rule="evenodd" clip-rule="evenodd" d="M85.917,29.563c0-10.373-8.432-18.813-18.794-18.813
	c-0.891,0-1.772,0.062-2.648,0.189C59.461,4.103,51.548,0,42.959,0c-8.59,0-16.498,4.103-21.516,10.939
	c-0.876-0.126-1.757-0.189-2.648-0.189C8.432,10.75,0,19.191,0,29.563s8.432,18.813,18.794,18.813c2.297,0,4.547-0.42,6.665-1.234
	c4.856,4.242,11.039,6.609,17.5,6.609c6.466,0,12.643-2.367,17.499-6.609c2.118,0.814,4.368,1.234,6.665,1.234
	C77.485,48.377,85.917,39.936,85.917,29.563z M59.415,40.54c-3.938,4.751-9.806,7.837-16.456,7.837S30.441,45.29,26.503,40.54
	c-2.181,1.538-4.834,2.462-7.708,2.462c-7.416,0-13.425-6.015-13.425-13.438c0-7.423,6.01-13.438,13.425-13.438
	c1.814,0,3.534,0.37,5.108,1.021c3.561-6.958,10.713-11.771,19.057-11.771c8.343,0,15.496,4.813,19.052,11.771
	c1.578-0.651,3.303-1.021,5.113-1.021c7.415,0,13.425,6.015,13.425,13.438c0,7.423-6.009,13.438-13.425,13.438
	C64.249,43.001,61.601,42.077,59.415,40.54z"/>
</svg>
