<?xml version="1.0" encoding="utf-8"?>
<!-- Generator: Adobe Illustrator 17.0.0, SVG Export Plug-In . SVG Version: 6.00 Build 0)  -->
<!DOCTYPE svg PUBLIC "-//W3C//DTD SVG 1.1//EN" "http://www.w3.org/Graphics/SVG/1.1/DTD/svg11.dtd">
<svg version="1.1" id="Calque_1" xmlns="http://www.w3.org/2000/svg" xmlns:xlink="http://www.w3.org/1999/xlink" x="0px" y="0px"
	 width="231px" height="141px" viewBox="0 0 231 141" enable-background="new 0 0 231 141" xml:space="preserve">
<g>
	<path d="M56.494,41.324c0.638,0,0.877,0.239,0.877,0.638c0,0.718-0.798,1.037-0.798,4.625v49.042c0,3.588,0.798,3.907,0.798,4.545
		c0,0.398-0.239,0.638-0.877,0.638h-5.582c-0.638,0-0.877-0.239-0.877-0.638c0-0.638,0.797-0.957,0.797-4.545V63.732l-4.625,10.207
		c-0.16,0.319-0.399,0.479-0.638,0.479s-0.479-0.16-0.558-0.479l-4.705-10.207v31.897c0,3.588,0.797,3.907,0.797,4.545
		c0,0.398-0.239,0.638-0.877,0.638h-5.582c-0.638,0-0.877-0.239-0.877-0.638c0-0.638,0.797-0.957,0.797-4.545V46.587
		c0-3.589-0.797-3.908-0.797-4.625c0-0.398,0.239-0.638,0.877-0.638h5.582c0.638,0,0.877,0.239,0.877,0.638
		c0,0.718-0.797,1.037-0.797,4.625v2.95c0,1.436,0.239,2.711,0.717,3.828l4.545,9.888l4.545-9.888
		c0.479-1.037,0.718-2.392,0.718-3.828v-2.95c0-3.589-0.797-3.908-0.797-4.625c0-0.398,0.239-0.638,0.877-0.638H56.494z"/>
	<path d="M80.578,89.808c0.16,0.797,0.558,0.957,0.558,1.435c0,0.399-0.159,0.559-0.638,0.559h-5.423
		c-0.478,0-0.638-0.16-0.638-0.559c0-0.478,0.16-0.638,0.16-1.116l-0.319-2.233c-0.159-0.877-0.319-1.276-0.797-1.276h-6.459
		c-0.479,0-0.718,0.399-0.797,1.276l-0.239,2.233c0,0.479,0.159,0.638,0.159,1.116c0,0.399-0.159,0.559-0.638,0.559h-5.183
		c-0.479,0-0.718-0.16-0.718-0.559c0-0.478,0.398-0.638,0.638-1.435l7.018-46.889c0-0.319-0.08-0.558-0.08-0.877
		c0-0.479,0.239-0.718,0.718-0.718h4.864c0.479,0,0.718,0.239,0.718,0.718c0,0.319-0.08,0.558-0.08,0.877L80.578,89.808z
		 M80.499,100.812H60.324c-0.479,0-0.718-0.239-0.718-0.638v-3.429c0-0.479,0.239-0.638,0.718-0.638h20.175
		c0.479,0,0.638,0.159,0.638,0.638v3.429C81.136,100.573,80.977,100.812,80.499,100.812z M67.022,81.674
		c0,0.638,0,0.957,0.558,0.957h5.343c0.479,0,0.558-0.319,0.558-0.957l-3.189-24.959L67.022,81.674z"/>
	<path d="M93.019,71.068l-3.349,6.699v17.862c0,3.588,0.797,3.907,0.797,4.545c0,0.398-0.239,0.638-0.877,0.638h-5.582
		c-0.638,0-0.877-0.239-0.877-0.638c0-0.638,0.797-0.957,0.797-4.545V46.587c0-3.589-0.797-3.908-0.797-4.625
		c0-0.398,0.239-0.638,0.877-0.638h5.582c0.638,0,0.877,0.239,0.877,0.638c0,0.718-0.797,1.037-0.797,4.625v20.414l11.244-23.604
		c0.558-1.196,0-2.073,1.196-2.073h5.423c0.478,0,0.717,0.239,0.717,0.638c0,0.479-0.638,0.479-1.116,1.436l-10.605,21.53
		l14.832,40.031c0.319,1.037,1.037,0.957,1.037,1.436c0,0.398-0.16,0.638-0.638,0.638h-5.502c-1.196,0-0.718-0.717-1.196-2.073
		L93.019,71.068z"/>
	<path d="M112.159,91.801c-0.638,0-0.877-0.16-0.877-0.559c0-0.717,0.797-1.037,0.797-4.625v-40.03c0-3.589-0.797-3.908-0.797-4.625
		c0-0.398,0.239-0.638,0.877-0.638h15.709c0.479,0,0.718,0.239,0.718,0.718v3.429c0,0.638-0.239,0.877-0.639,0.877
		c-0.718,0-0.877-0.239-2.552-0.239h-6.857c-0.478,0-0.717,0.159-0.717,0.638v1.675c0,0.479,0.239,0.718,0.717,0.718h11.882
		c0.398,0,0.638,0.159,0.638,0.638v2.631c0,0.479-0.239,0.718-0.638,0.718h-11.882c-0.478,0-0.717,0.16-0.717,0.638v32.694
		c0,0.479,0.239,0.638,0.717,0.638h7.177c1.675,0,1.834-0.239,2.552-0.239c0.398,0,0.638,0.239,0.638,0.877v3.429
		c0,0.479-0.239,0.638-0.718,0.638H112.159z M128.187,100.812H112c-0.479,0-0.718-0.239-0.718-0.638v-3.429
		c0-0.479,0.239-0.638,0.718-0.638h16.187c0.479,0,0.718,0.159,0.718,0.638v3.429C128.904,100.573,128.665,100.812,128.187,100.812z
		"/>
	<path d="M151.553,41.324c6.857,0,10.526,3.828,10.526,9.649c0,1.914-0.399,3.987-1.117,6.22l-11.961,35.326
		c-1.516,4.545-4.625,8.293-9.171,8.293h-6.379c-0.638,0-0.877-0.239-0.877-0.638c0-0.718,0.797-0.877,0.797-4.466V46.587
		c0-3.589-0.797-3.908-0.797-4.625c0-0.398,0.239-0.638,0.877-0.638H151.553z M139.113,96.107h0.558
		c1.355,0,2.791-1.675,3.907-4.865l11.323-34.05c0.878-2.711,1.356-4.864,1.356-6.539c0-3.189-1.755-4.545-5.343-4.545h-11.164
		c-0.479,0-0.638,0.159-0.638,0.638V96.107z M180.579,98.818c0.239,0.797,0.638,0.877,0.638,1.356c0,0.398-0.159,0.638-0.638,0.638
		h-5.423c-0.479,0-0.718-0.239-0.718-0.638c0-0.479,0.239-0.559,0.239-1.037l-0.479-3.349c-0.079-0.717-0.318-1.037-0.797-1.037
		h-8.771c-0.479,0-0.718,0.319-0.798,1.037l-0.479,3.349c0,0.479,0.159,0.559,0.159,1.037c0,0.398-0.159,0.638-0.638,0.638h-5.184
		c-0.479,0-0.717-0.239-0.717-0.638c0-0.479,0.398-0.559,0.638-1.356l8.452-55.899c0-0.319-0.079-0.558-0.079-0.877
		c0-0.479,0.159-0.718,0.638-0.718h4.944c0.479,0,0.718,0.239,0.718,0.718c0,0.319-0.08,0.558-0.08,0.877L180.579,98.818z
		 M164.631,89.648c0,0.877,0,1.117,0.558,1.117h7.655c0.479,0,0.559-0.239,0.559-1.117l-0.239-1.674
		c0-0.558-0.319-0.957-0.798-0.957h-6.698c-0.479,0-0.798,0.399-0.877,0.957L164.631,89.648z M165.667,82.152
		c0,0.638,0,0.877,0.479,0.877h5.662c0.558,0,0.558-0.239,0.558-0.877l-3.27-25.438L165.667,82.152z"/>
</g>
</svg>
