<svg xmlns="http://www.w3.org/2000/svg" xmlns:xlink="http://www.w3.org/1999/xlink" version="1.1" id="Layer_1" x="0px" y="0px" width="50px" height="50px" viewBox="2.5 -5.0 50.0 67.5" enable-background="new 0 0 50 50" xml:space="preserve">
<g>
	<g>
		<g>
			<g>
				<path fill="#000000" d="M42.479,9.979c0.248-0.228,0.178-0.433-0.158-0.458l-2.637-0.197c-0.336-0.024-0.729,0.201-0.877,0.503      l-2.832,5.791c-0.15,0.3-0.066,0.362,0.182,0.136L42.479,9.979z"/>
			</g>
			<g>
				<path fill="#000000" d="M28.115,8.46c-0.334-0.025-0.434,0.167-0.221,0.425l5.355,6.509c0.215,0.26,0.311,0.208,0.213-0.113      l-1.785-5.981c-0.094-0.322-0.447-0.606-0.781-0.631L28.115,8.46z"/>
			</g>
			<g>
				<path fill="#000000" d="M37.885,9.758c0.146-0.302-0.008-0.569-0.342-0.594l-4.514-0.337c-0.336-0.025-0.529,0.218-0.434,0.54      l1.902,6.372c0.096,0.322,0.295,0.339,0.441,0.038L37.885,9.758z"/>
			</g>
			<g>
				<path fill="#000000" d="M34.363,5.175c0.232-0.241,0.152-0.458-0.184-0.482l-2.912-0.218c-0.336-0.025-0.465,0.188-0.287,0.473      l1.078,1.743c0.178,0.286,0.514,0.322,0.748,0.081L34.363,5.175z"/>
			</g>
			<g>
				<path fill="#000000" d="M39.875,5.585c0.236-0.239,0.154-0.456-0.18-0.481L36.553,4.87c-0.336-0.025-0.453,0.18-0.262,0.455      l1.246,1.783c0.191,0.276,0.541,0.307,0.775,0.066L39.875,5.585z"/>
			</g>
			<g>
				<path fill="#000000" d="M27.91,7.102c-0.234,0.242-0.148,0.461,0.186,0.486l3.072,0.229c0.334,0.024,0.463-0.188,0.285-0.474      l-1.154-1.865c-0.178-0.285-0.512-0.321-0.746-0.08L27.91,7.102z"/>
			</g>
			<g>
				<path fill="#000000" d="M42.465,8.662c0.334,0.024,0.449-0.18,0.254-0.453l-1.416-1.993c-0.195-0.274-0.549-0.303-0.783-0.063      l-1.734,1.766c-0.234,0.24-0.154,0.457,0.18,0.481L42.465,8.662z"/>
			</g>
			<g>
				<path fill="#000000" d="M33.291,7.507c-0.234,0.241-0.154,0.457,0.182,0.482l3.223,0.241c0.334,0.024,0.451-0.182,0.26-0.455      l-1.289-1.849c-0.193-0.273-0.543-0.303-0.777-0.063L33.291,7.507z"/>
			</g>
		</g>
		<path fill="#000000" d="M24.078,17.734l-2.811-1.051c1.155-3.089,3.403-5.645,6.331-7.195l1.404,2.65    C26.725,13.346,24.975,15.333,24.078,17.734z"/>
		<path fill="#000000" d="M33.916,34.913c-0.336,0-0.674-0.013-1.014-0.038c-6.162-0.46-11.215-5.027-12.287-11.107l2.955-0.521    c0.833,4.728,4.761,8.279,9.554,8.636c5.773,0.418,10.816-3.913,11.246-9.684c0.252-3.364-1.146-6.67-3.74-8.84l1.926-2.301    c3.332,2.789,5.129,7.037,4.807,11.364C46.834,29.503,40.902,34.912,33.916,34.913z"/>
	</g>
	<path fill="#000000" d="M17.248,45.527c-7.665,0-13.901-6.236-13.901-13.901c0-7.666,6.236-13.901,13.901-13.901   c6.594,0,12.323,4.685,13.625,11.138l-2.941,0.594c-1.02-5.06-5.513-8.732-10.684-8.732c-6.011,0-10.901,4.89-10.901,10.901   c0,6.011,4.891,10.901,10.901,10.901c4.785,0,9.083-3.199,10.448-7.779l2.875,0.857C28.828,41.447,23.35,45.527,17.248,45.527z"/>
</g>
<text x="0.0" y="58.75" font-size="2.5" font-weight="bold" font-family="Helvetica Neue, Helvetica, Arial-Unicode, Arial, Sans-serif" fill="#000000">Created by Mister Pixel</text><text x="0.0" y="61.25" font-size="2.5" font-weight="bold" font-family="Helvetica Neue, Helvetica, Arial-Unicode, Arial, Sans-serif" fill="#000000">from the Noun Project</text></svg>