<svg xmlns="http://www.w3.org/2000/svg" xmlns:xlink="http://www.w3.org/1999/xlink" version="1.2" baseProfile="tiny" id="Calque_1" x="0px" y="0px" viewBox="2.83465 -5.6693 56.693 76.53555" xml:space="preserve" height="100px" width="100px">
<g id="Nouveau_symbole_2_9_">
</g>
<g id="Nouveau_symbole_2_8_">
</g>
<g id="Nouveau_symbole_2_7_">
</g>
<g id="Nouveau_symbole_2_6_">
</g>
<g id="Nouveau_symbole_2_5_">
</g>
<g id="Nouveau_symbole_2_4_">
</g>
<g id="Nouveau_symbole_2_3_">
</g>
<g id="Nouveau_symbole_2_2_">
</g>
<g id="Nouveau_symbole_2_1_">
</g>
<g id="Nouveau_symbole_2">
</g>
<g id="Nouveau_symbole_2_19_">
</g>
<g id="Nouveau_symbole_2_18_">
</g>
<g id="Nouveau_symbole_2_17_">
</g>
<g id="Nouveau_symbole_2_16_">
</g>
<g id="Nouveau_symbole_2_15_">
</g>
<g id="Nouveau_symbole_2_14_">
</g>
<g id="Nouveau_symbole_2_13_">
</g>
<g id="Nouveau_symbole_2_12_">
</g>
<g id="Nouveau_symbole_2_11_">
</g>
<g id="Nouveau_symbole_2_10_">
</g>
<path d="M43.348,21.625h-3.465v-3.897c0-5.873-4.777-10.651-10.649-10.651c-5.877,0-10.659,4.777-10.659,10.649v3.899h-3.347  c-0.972,0-1.759,0.788-1.759,1.759v24.021c0,0.972,0.788,1.759,1.759,1.759h28.12c0.972,0,1.759-0.788,1.759-1.759V23.385  C45.107,22.413,44.32,21.625,43.348,21.625z M22.216,17.728c0-3.865,3.149-7.01,7.018-7.01c3.865,0,7.01,3.144,7.01,7.008v3.899  h-14.03L22.216,17.728z M32.699,42.629h-6.94l1.263-6.074c-1.373-0.772-2.302-2.243-2.302-3.929c0-2.491,2.02-4.509,4.51-4.509  c2.489,0,4.509,2.019,4.509,4.509c0,1.686-0.927,3.156-2.302,3.929L32.699,42.629z"/>
<text x="0.0" y="66.614275" font-size="2.83465" font-weight="bold" font-family="Helvetica Neue, Helvetica, Arial-Unicode, Arial, Sans-serif" fill="#000000">Created by Jean-Philippe Cabaroc</text><text x="0.0" y="69.448925" font-size="2.83465" font-weight="bold" font-family="Helvetica Neue, Helvetica, Arial-Unicode, Arial, Sans-serif" fill="#000000">from the Noun Project</text></svg>