<svg xmlns="http://www.w3.org/2000/svg" xmlns:xlink="http://www.w3.org/1999/xlink" version="1.1" id="Your_Icon" x="0px" y="0px" width="100px" height="100px" viewBox="5.0 -10.0 100.0 135.0" enable-background="new 0 0 100 100" xml:space="preserve">
<g>
	<path d="M82.922,56.529c0-0.111-0.238-0.69-0.319-0.758L52.656,26.58V12.834h4.822c1.765,0,2.658-1.354,2.658-2.585   c0-1.224-0.894-2.591-2.658-2.591h-4.822V2.591C52.656,0.878,51.262,0,49.997,0c-1.259,0-2.653,0.878-2.653,2.591v5.067h-5.21   c-1.762,0-2.649,1.367-2.649,2.591c0,1.231,0.887,2.585,2.649,2.585h5.21v13.705l-29.98,29.245c-0.082,0.082-0.32,0.661-0.32,0.756   v42.393c0,0.571,0.514,1.067,1.102,1.067h22.403c0.585,0,1.102-0.496,1.102-1.067V80.956c0-4.654,3.748-8.365,8.312-8.365   c4.57,0,8.311,3.711,8.311,8.365v17.977c0,0.571,0.521,1.067,1.103,1.067h22.479c0.592,0,1.102-0.496,1.102-1.067L82.922,56.529z    M49.997,60.566c-4.741,0-8.587-3.85-8.587-8.59c0-4.741,3.847-8.591,8.587-8.591c4.743,0,8.59,3.85,8.59,8.591   C58.587,56.717,54.74,60.566,49.997,60.566z"/>
</g>
<text x="0.0" y="117.5" font-size="5.0" font-weight="bold" font-family="Helvetica Neue, Helvetica, Arial-Unicode, Arial, Sans-serif" fill="#000000">Created by Joab Penalva</text><text x="0.0" y="122.5" font-size="5.0" font-weight="bold" font-family="Helvetica Neue, Helvetica, Arial-Unicode, Arial, Sans-serif" fill="#000000">from the Noun Project</text></svg>