<svg xmlns="http://www.w3.org/2000/svg" xmlns:xlink="http://www.w3.org/1999/xlink" version="1.1" id="Layer_1" x="0px" y="0px" width="100.0px" height="100px" viewBox="7.0865 -14.173 141.73 191.3355" enable-background="new 0 0 141.73 141.73" xml:space="preserve">
<circle cx="70.865" cy="33.847" r="13.365"/>
<g>
	<path d="M40.182,87.681c0,4.862,3.942,8.805,8.806,8.805l0,0v-8.805H40.182z"/>
	<path d="M101.548,87.681c0,4.862-3.941,8.805-8.806,8.805l0,0v-8.805H101.548z"/>
</g>
<path d="M73.506,49.222v5.744h-5.281v-5.744c-19.004,1.354-34.005,17.19-34.005,36.54h16.965v36.645h39.36V85.762h16.966  C107.511,66.413,92.511,50.577,73.506,49.222z M74.863,71.746h-3.065v7.861h-1.865v-7.861h-3.065v-1.865h3.065V65.75h1.865v4.131  h3.065V71.746z"/>
<text x="0.0" y="166.53275" font-size="7.0865" font-weight="bold" font-family="Helvetica Neue, Helvetica, Arial-Unicode, Arial, Sans-serif" fill="#000000">Created by Viktor Fedyuk</text><text x="0.0" y="173.61925" font-size="7.0865" font-weight="bold" font-family="Helvetica Neue, Helvetica, Arial-Unicode, Arial, Sans-serif" fill="#000000">from the Noun Project</text></svg>