<svg xmlns="http://www.w3.org/2000/svg" xmlns:xlink="http://www.w3.org/1999/xlink" version="1.1" id="Your_Icon" x="0px" y="0px" width="100px" height="100px" viewBox="5.0 -10.0 100.0 135.0" enable-background="new 0 0 100 100" xml:space="preserve">
<g>
	<path fill="#000000" d="M72.061,0.128c3.064-0.396,6.258,0.125,8.992,1.587c2.19,1.155,4.035,2.929,5.352,5.021   c2.625,4.171,3.156,9.549,1.483,14.172c-0.747,2.076-1.994,3.948-3.505,5.545c-3.014,3.157-7.084,5.393-11.445,5.896   c-0.267,0.021-0.537,0.049-0.802,0.007c0.084-0.762-0.085-1.514-0.166-2.266c-0.737-4.225-3.055-8.159-6.417-10.828   c-1.979-1.572-4.319-2.748-6.816-3.202c-0.074-0.389-0.022-0.79-0.012-1.182c0.227-2.723,0.978-5.445,2.454-7.766   C63.524,3.322,67.641,0.696,72.061,0.128z"/>
	<g>
		<path fill="#000000" d="M14.881,16.692c2.68-1.694,5.948-2.399,9.091-2.072c5.119,0.488,9.953,3.547,12.489,8.035    c0.987,1.779,1.638,3.739,1.957,5.747c0.307,1.637,0.275,3.313,0.211,4.971c-0.138,1.482-0.427,2.955-0.907,4.365    c-0.748,2.156-1.954,4.215-3.733,5.678c-0.074,0.204,0.11,0.413,0.239,0.555c0.619,0.14,1.304,0.115,1.878,0.386    c-0.188,0.499-0.606,0.918-0.731,1.42c2.649,3.594,5.708,6.861,8.776,10.096c2.524,2.625,5.112,5.191,7.727,7.727    c1.997,1.796,4.059,3.523,5.995,5.384l0.105-0.005c-1.3-4.496-2.255-9.108-2.691-13.771c-0.139-1.204-0.248-2.415-0.201-3.629    c0.055-0.622,0.376-1.18,0.714-1.681c-1.827-0.097-3.61-0.685-5.231-1.521c-4.13-2.203-7.275-6.071-8.861-10.45    c-0.519-1.429-0.854-2.924-0.984-4.438c-0.009-0.809-0.012-1.62,0.001-2.429c0.343-4.613,2.944-8.989,6.822-11.512    c2.641-1.735,5.835-2.628,8.991-2.459c1.598,0.11,3.179,0.485,4.655,1.108c4.384,1.836,7.763,5.783,9.097,10.325    c0.371,1.296,0.656,2.637,0.602,3.994c0.146,3.456-0.973,6.875-2.721,9.83c-1.127,1.897-2.584,3.61-4.32,4.976    c-0.214,0.186-0.518,0.302-0.633,0.576c-1.367,3.827-2.451,7.777-2.888,11.826c-0.26,2.541-0.3,5.115,0.059,7.647l0.096-0.006    c0.975-1.602,2.457-2.88,4.136-3.702c0.638-0.285,1.322-0.595,2.035-0.521c1.326,0.98,2.098,2.532,2.612,4.063    c0.062,0.255,0.271,0.554,0.054,0.793c-1.172,1.732-3.215,2.56-5.139,3.16l-0.031,0.089c0.219,0.013,0.441,0.018,0.656,0.081    c1.234,0.27,2.472,0.539,3.692,0.879c1.296,0.335,2.611,0.702,3.745,1.444c2.703,1.653,4.184,4.892,4.109,8.003l-0.114-0.013    c-0.46-0.717-0.922-1.435-1.39-2.146h-0.091c-0.198,0.974-0.188,2.205-1.075,2.837c-0.302-1.699-1.172-3.267-2.345-4.521    c-1.759-1.868-4.051-3.142-6.412-4.09c-1.012-0.381-2.028-0.784-3.086-1.012c-0.035,0.196,0.132,0.338,0.238,0.481    c1.67,1.811,3.319,3.671,4.587,5.792c0.441,0.692,0.726,1.462,1.059,2.205c0.801,1.373,1.346,2.925,1.389,4.52    c0.625,1.023,1.064,2.204,1.02,3.418c-0.066,1.121-0.695,2.179-1.638,2.787c-1.412,0.825-2.712,1.987-3.39,3.503    c0.007,0.734,0.686,1.223,1.144,1.722c0.273,0.414-0.055,1.017-0.548,1.007c-0.219,0.037-0.367-0.22-0.577-0.174    c-0.052,0.588,0.681,0.929,0.574,1.527c-0.016,0.509-0.743,0.646-1.064,0.34c-0.639-0.769-0.979-1.735-1.138-2.712    c-0.505-0.778-1.023-1.549-1.549-2.312c-0.398-0.618-0.86-1.207-1.125-1.898c-0.46-1.087-0.423-2.358,0.045-3.436    c0.836-2.02,2.671-3.443,3.428-5.501c0.146-0.592,0.416-1.339-0.033-1.86c-1.901-2.63-3.424-5.524-4.625-8.536    c-0.044,0.003-0.135,0.005-0.18,0.008c-0.747,3.021-0.725,6.155-0.624,9.246c0.128,0.732,0.056,1.485,0.181,2.22    c0.027,0.556,0.156,1.1,0.168,1.659l-0.103-0.021c-0.46-0.701-0.92-1.403-1.367-2.111l-0.076-0.004    c-0.512,0.895-0.991,1.823-1.254,2.824c-0.031-0.021-0.093-0.06-0.124-0.079c-0.616-1.187-0.854-2.547-0.816-3.876    c-0.062-2.911,0.818-5.727,1.702-8.465l-0.107,0.007c-2.019,1.41-4.556,2.128-7.011,1.787c-0.238-0.057-0.502-0.097-0.698-0.252    c-0.609-1.08-0.801-2.352-0.767-3.578c0.019-0.62-0.037-1.275,0.188-1.862c0.892-0.641,1.996-0.869,3.065-0.993    c2.038-0.16,4.059,0.266,6.021,0.776c-0.009-0.041-0.024-0.123-0.031-0.164c-1.801-1.74-3.663-3.42-5.563-5.053    c-1.064-0.86-1.989-1.874-2.986-2.81c-3.091-3.066-6.173-6.143-9.107-9.36c-1.959-2.157-3.901-4.338-5.619-6.694    c-0.154-0.072-0.267,0.089-0.384,0.157c-0.346,0.245-0.826,0.461-1.236,0.282c-0.077-0.753-0.145-1.511-0.296-2.253    c-0.187-0.098-0.377-0.192-0.581-0.249c-3.107,1.617-6.799,1.754-10.159,0.956c-3.335-0.787-6.457-2.458-8.957-4.801    c-3.144-2.884-5.132-7.087-5.028-11.383C7.784,24.401,10.563,19.382,14.881,16.692z M58.995,49.703    c0.01,0.314-0.427,0.361-0.381,0.638c0.396,0.285,0.76,0.609,1.152,0.901c0.105,0.109,0.36,0.229,0.222,0.415    c-1.06,0.708-2.274,1.385-3.595,1.25c-0.062,0.523,0.085,1.036,0.104,1.559c0.411,4.644,1.316,9.245,2.59,13.733l0.098,0.025    c-0.127-1.238-0.298-2.475-0.329-3.72c-0.143-5.346,0.942-10.665,2.712-15.693C60.72,49.13,59.886,49.504,58.995,49.703z     M64.514,78.279c0.407,1.09,0.838,2.189,1.087,3.333c0.075,0.321,0.33,0.555,0.513,0.817c0.428,0.505,0.839,1.024,1.302,1.499    l0.099,0.006c-0.204-0.835-0.611-1.603-1.038-2.344c-0.394-1.195-1.077-2.26-1.789-3.288    C64.644,78.297,64.557,78.285,64.514,78.279z M65.52,84.362c-0.661,2.01-2.343,3.428-3.301,5.273    c-0.416,0.739-0.558,1.635-0.331,2.46c0.322,0.988,1.038,1.769,1.562,2.651c0.041,0.002,0.123,0.01,0.165,0.014    c-0.101-1.763,0.667-3.442,1.672-4.848c0.204-0.32,0.56-0.48,0.846-0.713c0.762-0.565,1.368-1.374,1.571-2.312    c0.055-0.294,0.217-0.688-0.08-0.9c-0.678-0.651-1.323-1.335-1.925-2.055C65.539,84.001,65.592,84.227,65.52,84.362z     M68.634,88.068c-0.419,1.094-1.316,1.923-2.271,2.561c-0.491,0.671-0.934,1.414-1.155,2.219L65.3,92.83    c0.73-0.774,1.55-1.469,2.479-1.994c0.747-0.453,1.164-1.346,1.063-2.208C68.797,88.444,68.875,88.117,68.634,88.068z"/>
	</g>
</g>
<text x="0.0" y="117.5" font-size="5.0" font-weight="bold" font-family="Helvetica Neue, Helvetica, Arial-Unicode, Arial, Sans-serif" fill="#000000">Created by misirlou</text><text x="0.0" y="122.5" font-size="5.0" font-weight="bold" font-family="Helvetica Neue, Helvetica, Arial-Unicode, Arial, Sans-serif" fill="#000000">from the Noun Project</text></svg>