<svg xmlns="http://www.w3.org/2000/svg" xmlns:xlink="http://www.w3.org/1999/xlink" version="1.1" x="0px" y="0px" width="100px" height="100px" viewBox="5.0 -10.0 100.0 135.0" enable-background="new 0 0 100 100" xml:space="preserve">
<g id="Captions">
</g>
<g id="Your_Icon">
	<path fill="#000000" d="M98.072,92.102C83.071,74.088,84.595,54,84.595,54h-1.352l-1.489,6.135L80.263,54h-5.363l-1.49,6.135   L71.921,54h-6.075l-1.485,6.135L62.868,54h-5.897l-1.489,6.135L53.993,54h-3.622h-0.69h-2.253l-1.491,6.135L44.445,54h-6.31   l-1.488,6.135L35.158,54h-6.546l-1.489,6.135L25.635,54h-6.571l-1.488,6.135L16.087,54H14.53c0,0,1.521,20.088-13.475,38.102   c38.823-1.471,47.161-22.068,48.896-32.395C51.425,70.033,59.246,90.631,98.072,92.102z"/>
	<polygon fill="#000000" points="8.817,53.527 7.229,53.527 8.817,59.921 10.406,53.527  "/>
	<polygon fill="#000000" points="90.957,53.527 89.371,53.527 90.957,59.921 92.548,53.527  "/>
	<path fill="#000000" d="M49.565,19.335C32.991,50.07,4.073,51.588,4.073,51.588h45.492h45.492   C95.058,51.588,66.142,50.07,49.565,19.335z"/>
	<polygon fill="#000000" points="49.529,13.874 49.529,18.421 67.827,13.874 49.529,9.326  "/>
</g>
<text x="0.0" y="117.5" font-size="5.0" font-weight="bold" font-family="Helvetica Neue, Helvetica, Arial-Unicode, Arial, Sans-serif" fill="#000000">Created by Matthew Mitchell-Camp</text><text x="0.0" y="122.5" font-size="5.0" font-weight="bold" font-family="Helvetica Neue, Helvetica, Arial-Unicode, Arial, Sans-serif" fill="#000000">from the Noun Project</text></svg>